<svg data-v-423bf9ae="" xmlns="http://www.w3.org/2000/svg" viewBox="0 0 452 90" class="iconLeft"><!----><!----><!----><g data-v-423bf9ae="" id="f739de76-2dd6-4ca1-a2d7-299ecfde6921" fill="#ffffff" transform="matrix(3.3787944316864014,0,0,3.3787944316864014,129.7527313232422,6.684998989105225)"><path d="M1.58 4.45L1.58 4.45L1.58 4.45Q3.30 4.69 5.08 4.69L5.08 4.69L5.08 4.69Q6.86 4.69 7.60 4.61L7.60 4.61L7.60 4.61Q7.84 4.05 7.91 3.70L7.91 3.70L7.91 3.70Q8.83 4.62 8.83 5.54L8.83 5.54L8.83 5.54Q8.83 6.45 7.42 8.20L7.42 8.20L7.42 8.20Q6.76 9.03 6.03 9.88L6.03 9.88L6.03 9.88Q4.02 12.22 2.91 13.94L2.91 13.94L3.12 13.94L3.12 13.94Q6.52 13.94 8.15 13.41L8.15 13.41L8.15 13.41Q8.02 14.45 7.52 15.02L7.52 15.02L7.52 15.02Q7.01 15.60 6.26 15.60L6.26 15.60L6.26 15.60Q5.87 15.60 4.63 15.44L4.63 15.44L4.63 15.44Q3.40 15.29 2.10 15.29L2.10 15.29L2.10 15.29Q0.80 15.29-0.29 15.57L-0.29 15.57L-0.29 15.57Q-0.01 14.49 1.04 14.11L1.04 14.11L1.04 14.11Q5.07 9.35 6.99 5.87L6.99 5.87L6.99 5.87Q3.33 6.65 2.14 6.65L2.14 6.65L2.14 6.65Q1.47 6.65 1.47 5.36L1.47 5.36L1.47 5.36Q1.50 4.72 1.58 4.45ZM11.30 12.78L11.30 12.78L11.30 12.78Q11.30 13.44 11.54 13.85L11.54 13.85L11.54 13.85Q11.79 14.27 12.24 14.27L12.24 14.27L12.24 14.27Q12.89 14.27 13.49 13.50L13.49 13.50L13.49 13.50Q14.08 12.73 14.44 11.52L14.44 11.52L14.44 11.52Q14.80 10.32 14.80 9.23L14.80 9.23L14.80 9.23Q14.80 8.15 14.71 7.48L14.71 7.48L14.71 7.48Q15.13 7.45 15.30 7.45L15.30 7.45L15.30 7.45Q16.02 7.45 16.38 7.71L16.38 7.71L16.38 7.71Q16.74 7.98 16.74 8.67L16.74 8.67L16.74 8.67Q16.74 8.93 16.41 10.83L16.41 10.83L16.41 10.83Q16.07 12.73 16.07 13.87L16.07 13.87L16.07 13.87Q16.07 15.01 16.51 15.89L16.51 15.89L16.51 15.89Q15.46 15.71 14.97 15.11L14.97 15.11L14.97 15.11Q14.48 14.52 14.48 13.40L14.48 13.40L14.48 13.40Q14.48 13.20 14.53 12.64L14.53 12.64L14.53 12.64Q14.15 13.97 13.19 14.78L13.19 14.78L13.19 14.78Q12.22 15.60 11.29 15.60L11.29 15.60L11.29 15.60Q10.36 15.60 9.79 14.90L9.79 14.90L9.79 14.90Q9.23 14.21 9.23 12.94L9.23 12.94L9.23 12.94Q9.23 11.66 9.68 10.46L9.68 10.46L9.68 10.46Q10.14 9.27 11.05 8.44L11.05 8.44L11.05 8.44Q11.96 7.60 13.08 7.60L13.08 7.60L13.08 7.60Q13.72 7.60 14.39 7.91L14.39 7.91L14.39 7.91Q12.98 8.41 12.14 9.89L12.14 9.89L12.14 9.89Q11.30 11.37 11.30 12.78ZM20.29 12.26L20.29 12.26L20.29 12.26Q20.29 14.60 21.66 14.60L21.66 14.60L21.66 14.60Q22.19 14.60 22.74 14.24L22.74 14.24L22.74 14.24Q23.28 13.87 23.69 13.23L23.69 13.23L23.69 13.23Q24.19 13.34 24.19 13.75L24.19 13.75L24.19 13.75Q23.60 14.77 22.75 15.20L22.75 15.20L22.75 15.20Q21.90 15.64 21.04 15.64L21.04 15.64L21.04 15.64Q19.89 15.64 19.09 14.79L19.09 14.79L19.09 14.79Q18.28 13.94 18.28 12.33L18.28 12.33L18.28 12.33Q18.28 10.28 19.42 8.81L19.42 8.81L19.42 8.81Q20.55 7.35 22.48 7.35L22.48 7.35L22.48 7.35Q23.56 7.35 24.11 7.88L24.11 7.88L24.11 7.88Q24.65 8.40 24.65 9.12L24.65 9.12L24.65 9.12Q24.65 9.84 24.21 10.37L24.21 10.37L24.21 10.37Q23.77 10.91 23.09 10.91L23.09 10.91L23.09 10.91Q22.75 10.91 22.41 10.77L22.41 10.77L22.41 10.77Q22.62 10.53 22.81 10.02L22.81 10.02L22.81 10.02Q22.99 9.51 22.99 9.07L22.99 9.07L22.99 9.07Q22.99 8.22 22.25 8.22L22.25 8.22L22.25 8.22Q21.38 8.22 20.83 9.49L20.83 9.49L20.83 9.49Q20.29 10.77 20.29 12.26ZM28.13 11.10L28.13 11.10Q28.59 9.52 29.57 8.44L29.57 8.44L29.57 8.44Q30.55 7.35 31.40 7.35L31.40 7.35L31.40 7.35Q32.24 7.35 32.60 7.86L32.60 7.86L32.60 7.86Q32.96 8.37 32.96 9.25L32.96 9.25L32.96 9.25Q32.96 10.12 32.68 11.70L32.68 11.70L32.68 11.70Q32.41 13.29 32.41 14.01L32.41 14.01L32.41 14.01Q32.41 14.73 32.59 15.06L32.59 15.06L32.59 15.06Q32.77 15.39 33.21 15.62L33.21 15.62L33.21 15.62Q33.03 15.64 32.69 15.64L32.69 15.64L32.69 15.64Q31.51 15.64 31.02 15.27L31.02 15.27L31.02 15.27Q30.52 14.91 30.52 14L30.52 14L30.52 14Q30.52 13.48 30.80 11.98L30.80 11.98L30.80 11.98Q31.08 10.47 31.08 9.73L31.08 9.73L31.08 9.73Q31.08 8.81 30.52 8.81L30.52 8.81L30.52 8.81Q30.18 8.81 29.78 9.18L29.78 9.18L29.78 9.18Q29.37 9.56 29.00 10.21L29.00 10.21L29.00 10.21Q28.63 10.86 28.38 11.89L28.38 11.89L28.38 11.89Q28.13 12.91 28.13 13.92L28.13 13.92L28.13 13.92Q28.13 14.94 28.21 15.43L28.21 15.43L28.21 15.43Q27.76 15.46 27.62 15.46L27.62 15.46L27.62 15.46Q26.82 15.46 26.47 15.18L26.47 15.18L26.47 15.18Q26.12 14.91 26.12 14.31L26.12 14.31L26.12 14.31Q26.12 13.71 26.36 12.01L26.36 12.01L26.36 12.01Q27.12 6.80 27.12 4.10L27.12 4.10L27.12 4.10Q27.12 2.88 26.95 2.46L26.95 2.46L26.95 2.46Q28.00 2.74 28.39 3.31L28.39 3.31L28.39 3.31Q28.77 3.88 28.77 4.91L28.77 4.91L28.77 4.91Q28.77 5.61 28.50 7.85L28.50 7.85L28.50 7.85Q28.22 10.09 28.13 11.10L28.13 11.10ZM36.51 12.78L36.51 12.78L36.51 12.78Q36.51 13.44 36.76 13.85L36.76 13.85L36.76 13.85Q37.00 14.27 37.45 14.27L37.45 14.27L37.45 14.27Q38.11 14.27 38.70 13.50L38.70 13.50L38.70 13.50Q39.30 12.73 39.66 11.52L39.66 11.52L39.66 11.52Q40.01 10.32 40.01 9.23L40.01 9.23L40.01 9.23Q40.01 8.15 39.93 7.48L39.93 7.48L39.93 7.48Q40.35 7.45 40.52 7.45L40.52 7.45L40.52 7.45Q41.23 7.45 41.59 7.71L41.59 7.71L41.59 7.71Q41.96 7.98 41.96 8.67L41.96 8.67L41.96 8.67Q41.96 8.93 41.62 10.83L41.62 10.83L41.62 10.83Q41.29 12.73 41.29 13.87L41.29 13.87L41.29 13.87Q41.29 15.01 41.72 15.89L41.72 15.89L41.72 15.89Q40.67 15.71 40.18 15.11L40.18 15.11L40.18 15.11Q39.69 14.52 39.69 13.40L39.69 13.40L39.69 13.40Q39.69 13.20 39.75 12.64L39.75 12.64L39.75 12.64Q39.37 13.97 38.40 14.78L38.40 14.78L38.40 14.78Q37.44 15.60 36.51 15.60L36.51 15.60L36.51 15.60Q35.57 15.60 35.01 14.90L35.01 14.90L35.01 14.90Q34.44 14.21 34.44 12.94L34.44 12.94L34.44 12.94Q34.44 11.66 34.90 10.46L34.90 10.46L34.90 10.46Q35.35 9.27 36.26 8.44L36.26 8.44L36.26 8.44Q37.17 7.60 38.29 7.60L38.29 7.60L38.29 7.60Q38.93 7.60 39.61 7.91L39.61 7.91L39.61 7.91Q38.19 8.41 37.35 9.89L37.35 9.89L37.35 9.89Q36.51 11.37 36.51 12.78ZM45.84 10.88L45.84 10.88Q46.34 9.06 47.05 8.20L47.05 8.20L47.05 8.20Q47.75 7.34 48.36 7.34L48.36 7.34L48.36 7.34Q48.97 7.34 49.28 7.79L49.28 7.79L49.28 7.79Q49.59 8.25 49.59 8.97L49.59 8.97L49.59 8.97Q49.59 9.69 49.16 10.29L49.16 10.29L49.16 10.29Q48.73 10.89 47.99 10.89L47.99 10.89L47.99 10.89Q47.80 10.89 47.53 10.78L47.53 10.78L47.53 10.78Q47.96 10.23 47.96 9.46L47.96 9.46L47.96 9.46Q47.96 9.02 47.60 9.02L47.60 9.02L47.60 9.02Q47.33 9.02 47.03 9.39L47.03 9.39L47.03 9.39Q46.72 9.76 46.44 10.41L46.44 10.41L46.44 10.41Q46.16 11.06 45.97 12.08L45.97 12.08L45.97 12.08Q45.78 13.09 45.78 14.24L45.78 14.24L45.78 14.24Q45.78 14.38 45.85 15.43L45.85 15.43L45.85 15.43Q45.40 15.46 45.28 15.46L45.28 15.46L45.28 15.46Q44.48 15.46 44.13 15.18L44.13 15.18L44.13 15.18Q43.78 14.90 43.78 14.25L43.78 14.25L43.78 14.25Q43.78 13.97 44.07 12.10L44.07 12.10L44.07 12.10Q44.37 10.22 44.37 9.11L44.37 9.11L44.37 9.11Q44.37 7.99 44.13 7.06L44.13 7.06L44.13 7.06Q45.15 7.38 45.56 7.97L45.56 7.97L45.56 7.97Q45.96 8.57 45.96 9.36L45.96 9.36L45.96 9.36Q45.96 10.15 45.84 10.88L45.84 10.88ZM56.36 8.32L56.36 8.32L56.36 8.32Q56.36 8.81 55.94 9.64L55.94 9.64L55.94 9.64Q55.52 10.47 54.92 11.48L54.92 11.48L54.92 11.48Q54.32 12.49 53.72 13.63L53.72 13.63L53.72 13.63Q53.12 14.77 52.70 16.21L52.70 16.21L52.70 16.21Q52.28 17.64 52.28 19.01L52.28 19.01L52.28 19.01Q52.28 19.64 52.37 20.22L52.37 20.22L52.37 20.22Q51.24 20.01 50.83 19.59L50.83 19.59L50.83 19.59Q50.43 19.18 50.43 18.62L50.43 18.62L50.43 18.62Q50.43 17.85 51.55 15.58L51.55 15.58L51.55 15.58Q51.34 14.71 51.03 12.86L51.03 12.86L51.03 12.86Q50.72 11.00 50.41 9.63L50.41 9.63L50.41 9.63Q50.09 8.26 49.69 7.59L49.69 7.59L49.69 7.59Q50.46 7.22 50.92 7.22L50.92 7.22L50.92 7.22Q51.38 7.22 51.62 7.43L51.62 7.43L51.62 7.43Q51.86 7.64 52.02 8.27L52.02 8.27L52.02 8.27Q52.18 8.89 52.25 9.30L52.25 9.30L52.25 9.30Q52.44 10.64 52.44 10.79L52.44 10.79L52.44 10.79Q52.44 10.95 52.56 12.05L52.56 12.05L52.56 12.05Q52.67 13.15 52.72 13.50L52.72 13.50L52.72 13.50Q55.22 8.67 55.22 7.04L55.22 7.04L55.22 7.04Q56.36 7.63 56.36 8.32ZM62.48 12.61L62.48 12.61L62.48 12.61Q62.78 10.64 62.94 8.82L62.94 8.82L62.94 8.82Q63.10 7 63.10 5.52L63.10 5.52L63.10 5.52Q63.10 4.03 62.90 3.57L62.90 3.57L62.90 3.57Q64.40 3.96 64.78 4.80L64.78 4.80L64.78 4.80Q65.86 4.20 67.06 4.20L67.06 4.20L67.06 4.20Q68.26 4.20 69.03 4.88L69.03 4.88L69.03 4.88Q69.79 5.56 69.79 6.53L69.79 6.53L69.79 6.53Q69.79 7.50 69.09 8.34L69.09 8.34L69.09 8.34Q68.39 9.17 67.17 9.58L67.17 9.58L67.17 9.58Q68.15 9.79 68.97 10.52L68.97 10.52L68.97 10.52Q69.79 11.26 69.79 12.33L69.79 12.33L69.79 12.33Q69.79 13.99 68.56 14.88L68.56 14.88L68.56 14.88Q67.34 15.76 65.47 15.76L65.47 15.76L65.47 15.76Q63.60 15.76 62.17 14.69L62.17 14.69L62.17 14.69Q62.19 14.57 62.48 12.61ZM67.82 6.86L67.82 6.86Q67.82 6.23 67.42 5.80L67.42 5.80L67.42 5.80Q67.03 5.38 66.32 5.38L66.32 5.38L66.32 5.38Q65.60 5.38 64.95 5.67L64.95 5.67L64.95 5.67Q64.95 6.52 64.58 9.97L64.58 9.97L64.58 9.97Q64.20 13.41 64.20 14.38L64.20 14.38L64.20 14.38Q64.82 14.63 65.39 14.63L65.39 14.63L65.39 14.63Q66.39 14.63 67.03 13.97L67.03 13.97L67.03 13.97Q67.68 13.31 67.68 12.32L67.68 12.32L67.68 12.32Q67.68 11.33 67.00 10.66L67.00 10.66L67.00 10.66Q66.33 10.00 65.13 9.94L65.13 9.94L65.09 9.44L65.09 9.44Q66.37 9.25 67.09 8.49L67.09 8.49L67.09 8.49Q67.82 7.73 67.82 6.86L67.82 6.86ZM73.23 12.78L73.23 12.78L73.23 12.78Q73.23 13.44 73.48 13.85L73.48 13.85L73.48 13.85Q73.72 14.27 74.17 14.27L74.17 14.27L74.17 14.27Q74.83 14.27 75.42 13.50L75.42 13.50L75.42 13.50Q76.02 12.73 76.38 11.52L76.38 11.52L76.38 11.52Q76.73 10.32 76.73 9.23L76.73 9.23L76.73 9.23Q76.73 8.15 76.65 7.48L76.65 7.48L76.65 7.48Q77.07 7.45 77.24 7.45L77.24 7.45L77.24 7.45Q77.95 7.45 78.32 7.71L78.32 7.71L78.32 7.71Q78.68 7.98 78.68 8.67L78.68 8.67L78.68 8.67Q78.68 8.93 78.34 10.83L78.34 10.83L78.34 10.83Q78.01 12.73 78.01 13.87L78.01 13.87L78.01 13.87Q78.01 15.01 78.44 15.89L78.44 15.89L78.44 15.89Q77.39 15.71 76.90 15.11L76.90 15.11L76.90 15.11Q76.41 14.52 76.41 13.40L76.41 13.40L76.41 13.40Q76.41 13.20 76.47 12.64L76.47 12.64L76.47 12.64Q76.09 13.97 75.12 14.78L75.12 14.78L75.12 14.78Q74.16 15.60 73.23 15.60L73.23 15.60L73.23 15.60Q72.30 15.60 71.73 14.90L71.73 14.90L71.73 14.90Q71.16 14.21 71.16 12.94L71.16 12.94L71.16 12.94Q71.16 11.66 71.62 10.46L71.62 10.46L71.62 10.46Q72.07 9.27 72.98 8.44L72.98 8.44L72.98 8.44Q73.89 7.60 75.01 7.60L75.01 7.60L75.01 7.60Q75.66 7.60 76.33 7.91L76.33 7.91L76.33 7.91Q74.91 8.41 74.07 9.89L74.07 9.89L74.07 9.89Q73.23 11.37 73.23 12.78ZM82.22 12.26L82.22 12.26L82.22 12.26Q82.22 14.60 83.59 14.60L83.59 14.60L83.59 14.60Q84.13 14.60 84.67 14.24L84.67 14.24L84.67 14.24Q85.22 13.87 85.62 13.23L85.62 13.23L85.62 13.23Q86.13 13.34 86.13 13.75L86.13 13.75L86.13 13.75Q85.54 14.77 84.69 15.20L84.69 15.20L84.69 15.20Q83.83 15.64 82.98 15.64L82.98 15.64L82.98 15.64Q81.83 15.64 81.02 14.79L81.02 14.79L81.02 14.79Q80.22 13.94 80.22 12.33L80.22 12.33L80.22 12.33Q80.22 10.28 81.35 8.81L81.35 8.81L81.35 8.81Q82.49 7.35 84.42 7.35L84.42 7.35L84.42 7.35Q85.50 7.35 86.04 7.88L86.04 7.88L86.04 7.88Q86.59 8.40 86.59 9.12L86.59 9.12L86.59 9.12Q86.59 9.84 86.15 10.37L86.15 10.37L86.15 10.37Q85.71 10.91 85.02 10.91L85.02 10.91L85.02 10.91Q84.69 10.91 84.35 10.77L84.35 10.77L84.35 10.77Q84.56 10.53 84.74 10.02L84.74 10.02L84.74 10.02Q84.92 9.51 84.92 9.07L84.92 9.07L84.92 9.07Q84.92 8.22 84.18 8.22L84.18 8.22L84.18 8.22Q83.31 8.22 82.77 9.49L82.77 9.49L82.77 9.49Q82.22 10.77 82.22 12.26ZM89.75 12.78L89.75 12.78L89.75 12.78Q89.75 13.44 90.00 13.85L90.00 13.85L90.00 13.85Q90.24 14.27 90.69 14.27L90.69 14.27L90.69 14.27Q91.35 14.27 91.94 13.50L91.94 13.50L91.94 13.50Q92.54 12.73 92.90 11.52L92.90 11.52L92.90 11.52Q93.25 10.32 93.25 9.23L93.25 9.23L93.25 9.23Q93.25 8.15 93.17 7.48L93.17 7.48L93.17 7.48Q93.59 7.45 93.76 7.45L93.76 7.45L93.76 7.45Q94.47 7.45 94.84 7.71L94.84 7.71L94.84 7.71Q95.20 7.98 95.20 8.67L95.20 8.67L95.20 8.67Q95.20 8.93 94.86 10.83L94.86 10.83L94.86 10.83Q94.53 12.73 94.53 13.87L94.53 13.87L94.53 13.87Q94.53 15.01 94.96 15.89L94.96 15.89L94.96 15.89Q93.91 15.71 93.42 15.11L93.42 15.11L93.42 15.11Q92.93 14.52 92.93 13.40L92.93 13.40L92.93 13.40Q92.93 13.20 92.99 12.64L92.99 12.64L92.99 12.64Q92.61 13.97 91.64 14.78L91.64 14.78L91.64 14.78Q90.68 15.60 89.75 15.60L89.75 15.60L89.75 15.60Q88.82 15.60 88.25 14.90L88.25 14.90L88.25 14.90Q87.68 14.21 87.68 12.94L87.68 12.94L87.68 12.94Q87.68 11.66 88.14 10.46L88.14 10.46L88.14 10.46Q88.59 9.27 89.50 8.44L89.50 8.44L89.50 8.44Q90.41 7.60 91.53 7.60L91.53 7.60L91.53 7.60Q92.18 7.60 92.85 7.91L92.85 7.91L92.85 7.91Q91.43 8.41 90.59 9.89L90.59 9.89L90.59 9.89Q89.75 11.37 89.75 12.78Z"></path></g><!----><g data-v-423bf9ae="" id="66b05898-1b90-420f-a5a7-9f7b70b1c4ad" transform="matrix(1.1111111640930176,0,0,1.1111111640930176,-0.5104193091392517,-10.055558204650879)" stroke="none" fill="#358EB3"><path d="M94.8 45.8H81.9C79.8 25.4 62.5 9.5 41.6 9.5 19.2 9.5 1.1 27.6 1.1 50s18.1 40.5 40.5 40.5c21 0 38.2-15.9 40.3-36.3h12.9c2.3 0 4.2-1.9 4.2-4.2-.1-2.3-2-4.2-4.2-4.2zM41.6 83.9c-18.8 0-34-15.2-34-34s15.2-34 34-34 34 15.2 34 34c-.1 18.8-15.3 34-34 34z"></path><path d="M41.6 19.1c-17.1 0-30.9 13.8-30.9 30.9s13.8 30.9 30.9 30.9c17.1 0 30.9-13.8 30.9-30.9S58.7 19.1 41.6 19.1zm-9.4 38l-9.3-7.5 9.4-6.8 2.2 3.1-5.4 3.9 5.4 4.4-2.3 2.9zm8 5l-3.6-1.2 7.9-23 3.6 1.2-7.9 23zm12-5l-2.4-2.9 5.4-4.4-5.4-3.9 2.2-3.1 9.4 6.8-9.2 7.5z"></path></g><!----></svg>