<svg data-v-fde0c5aa="" xmlns="http://www.w3.org/2000/svg" viewBox="0 0 300 300" class="icon"><!----><defs data-v-fde0c5aa=""><!----></defs><rect data-v-fde0c5aa="" fill="#D4DC4E" x="0" y="0" width="300px" height="300px" class="logo-background-square"></rect><!----><defs data-v-fde0c5aa=""><!----></defs><g data-v-fde0c5aa="" id="eb6e9643-71fe-4927-8e0e-7e48426afbfb" fill="#358EB3" stroke="none" transform="matrix(2.2472269535064697,0,0,2.2472269535064697,37.52453914292553,37.63865613279067)"><path d="M94.8 45.8H81.9C79.8 25.4 62.5 9.5 41.6 9.5 19.2 9.5 1.1 27.6 1.1 50s18.1 40.5 40.5 40.5c21 0 38.2-15.9 40.3-36.3h12.9c2.3 0 4.2-1.9 4.2-4.2-.1-2.3-2-4.2-4.2-4.2zM41.6 83.9c-18.8 0-34-15.2-34-34s15.2-34 34-34 34 15.2 34 34c-.1 18.8-15.3 34-34 34z"></path><path d="M41.6 19.1c-17.1 0-30.9 13.8-30.9 30.9s13.8 30.9 30.9 30.9c17.1 0 30.9-13.8 30.9-30.9S58.7 19.1 41.6 19.1zm-9.4 38l-9.3-7.5 9.4-6.8 2.2 3.1-5.4 3.9 5.4 4.4-2.3 2.9zm8 5l-3.6-1.2 7.9-23 3.6 1.2-7.9 23zm12-5l-2.4-2.9 5.4-4.4-5.4-3.9 2.2-3.1 9.4 6.8-9.2 7.5z"></path></g><!----></svg>